<?xml version="1.0" standalone="no"?>
<!DOCTYPE svg PUBLIC "-//W3C//DTD SVG 20010904//EN"
 "http://www.w3.org/TR/2001/REC-SVG-20010904/DTD/svg10.dtd">
<svg version="1.0" xmlns="http://www.w3.org/2000/svg"
 width="541.000000pt" height="332.000000pt" viewBox="0 0 541.000000 332.000000"
 preserveAspectRatio="xMidYMid meet">

<g transform="translate(0.000000,332.000000) scale(0.100000,-0.100000)"
fill="#000000" stroke="none">
<path d="M48 3286 c-10 -7 -22 -25 -28 -40 -7 -19 -9 -532 -8 -1604 2 -867 4
-1236 5 -820 3 750 3 758 23 758 20 0 20 -7 20 -753 0 -718 1 -755 18 -770 17
-16 214 -17 2635 -17 l2616 0 15 22 c14 20 16 187 16 1590 0 1411 -2 1568 -16
1582 -14 14 -267 16 -2634 16 -2367 0 -2620 -2 -2634 -16 -14 -14 -16 -102
-16 -825 0 -805 0 -809 -20 -809 -20 0 -20 3 -18 826 l3 826 24 19 c23 19 79
19 2662 19 2626 0 2639 0 2659 -20 20 -20 20 -33 20 -1624 l0 -1605 -26 -20
c-18 -14 -22 -21 -11 -21 8 0 22 11 31 25 15 22 16 168 16 1625 l0 1601 -25
24 -24 25 -2643 0 c-2152 -1 -2646 -3 -2660 -14z m5292 -66 c6 -12 9 -85 8
-192 l-3 -173 -117 -3 -118 -3 0 65 c0 58 -3 67 -26 85 l-27 21 -2348 0 -2348
0 -27 -23 c-23 -20 -28 -34 -32 -85 l-4 -62 -114 0 -114 0 0 176 c0 102 4 183
10 195 11 19 51 19 2630 19 2600 0 2619 0 2630 -20z m-263 -232 l23 -21 0
-1379 c0 -1365 0 -1378 -20 -1398 -20 -20 -33 -20 -2372 -20 -2174 0 -2353 1
-2370 17 -17 15 -18 49 -16 707 l3 691 2 -679 c3 -615 5 -681 20 -698 15 -17
106 -18 2359 -18 2091 0 2344 2 2358 15 8 9 18 30 21 48 3 18 4 631 3 1363 -3
1110 -5 1334 -17 1347 -12 16 -190 17 -2361 17 -2257 0 -2348 -1 -2363 -18
-15 -17 -17 -83 -20 -693 l-2 -674 -3 687 -2 687 22 21 22 20 2345 0 2345 0
23 -22z m-19 -30 c9 -9 12 -328 12 -1375 0 -1337 0 -1362 -19 -1373 -14 -7
-763 -10 -2350 -10 -2104 0 -2331 2 -2345 16 -14 14 -16 151 -16 1365 0 912 3
1357 10 1370 11 19 47 19 2353 19 1809 0 2346 -3 2355 -12z m-4758 -138 c0
-19 -7 -20 -110 -20 -103 0 -110 1 -110 20 0 19 7 20 110 20 103 0 110 -1 110
-20z m5040 0 c0 -19 -7 -20 -110 -20 -103 0 -110 1 -110 20 0 19 7 20 110 20
103 0 110 -1 110 -20z m-5040 -90 l0 -60 -115 0 -115 0 0 60 0 60 115 0 115 0
0 -60z m5045 0 l0 -55 -117 -3 -118 -3 0 54 c0 30 3 57 7 61 4 3 57 5 117 4
l111 -3 0 -55z m-5045 -90 c0 -19 -7 -20 -110 -20 -103 0 -110 1 -110 20 0 19
7 20 110 20 103 0 110 -1 110 -20z m5040 0 c0 -19 -7 -20 -110 -20 -103 0
-110 1 -110 20 0 19 7 20 110 20 103 0 110 -1 110 -20z m-5040 -90 l0 -60
-115 0 -115 0 0 60 0 60 115 0 115 0 0 -60z m5045 0 l0 -55 -115 0 -115 0 -3
44 c-5 72 -6 72 120 69 l113 -3 0 -55z m-5045 -90 c0 -19 -7 -20 -110 -20
-103 0 -110 1 -110 20 0 19 7 20 110 20 103 0 110 -1 110 -20z m5040 0 c0 -19
-7 -20 -110 -20 -103 0 -110 1 -110 20 0 19 7 20 110 20 103 0 110 -1 110 -20z
m-5040 -90 l0 -60 -115 0 -115 0 0 60 0 60 115 0 115 0 0 -60z m5045 0 l0 -55
-115 0 -115 0 -3 44 c-5 72 -6 72 120 69 l113 -3 0 -55z m-5045 -90 c0 -19 -7
-20 -110 -20 -103 0 -110 1 -110 20 0 19 7 20 110 20 103 0 110 -1 110 -20z
m5040 0 c0 -19 -7 -20 -110 -20 -103 0 -110 1 -110 20 0 19 7 20 110 20 103 0
110 -1 110 -20z m-5040 -90 l0 -60 -115 0 -115 0 0 60 0 60 115 0 115 0 0 -60z
m5045 0 l0 -55 -115 0 -115 0 -3 44 c-5 72 -6 72 120 69 l113 -3 0 -55z
m-5045 -90 c0 -19 -7 -20 -110 -20 -103 0 -110 1 -110 20 0 19 7 20 110 20
103 0 110 -1 110 -20z m5040 0 c0 -19 -7 -20 -110 -20 -103 0 -110 1 -110 20
0 19 7 20 110 20 103 0 110 -1 110 -20z m-5040 -90 l0 -60 -115 0 -115 0 0 60
0 60 115 0 115 0 0 -60z m5045 0 l0 -55 -115 0 -115 0 -3 58 -3 58 118 -3 118
-3 0 -55z m-5045 -90 c0 -19 -7 -20 -110 -20 -103 0 -110 1 -110 20 0 19 7 20
110 20 103 0 110 -1 110 -20z m5040 0 c0 -19 -7 -20 -110 -20 -103 0 -110 1
-110 20 0 19 7 20 110 20 103 0 110 -1 110 -20z m-5040 -90 l0 -60 -115 0
-115 0 0 60 0 60 115 0 115 0 0 -60z m5045 0 l0 -55 -115 0 -115 0 -3 44 c-5
72 -6 72 120 69 l113 -3 0 -55z m-5045 -90 c0 -19 -7 -20 -110 -20 -103 0
-110 1 -110 20 0 19 7 20 110 20 103 0 110 -1 110 -20z m5040 0 c0 -19 -7 -20
-110 -20 -103 0 -110 1 -110 20 0 19 7 20 110 20 103 0 110 -1 110 -20z
m-5040 -85 l0 -55 -115 0 -115 0 0 55 0 55 115 0 115 0 0 -55z m5048 -7 l3
-58 -121 0 -120 0 0 60 0 61 118 -3 117 -3 3 -57z m-5048 -88 c0 -19 -7 -20
-110 -20 -103 0 -110 1 -110 20 0 19 7 20 110 20 103 0 110 -1 110 -20z m5038
-2 c3 -16 -7 -18 -107 -18 -105 0 -111 1 -111 20 0 20 5 21 107 18 93 -3 108
-5 111 -20z m-5038 -88 l0 -60 -115 0 -115 0 0 60 0 60 115 0 115 0 0 -60z
m5048 -2 l3 -58 -121 0 -120 0 0 53 c0 30 3 57 7 61 4 3 57 5 117 4 l111 -3 3
-57z m-5048 -88 c0 -19 -7 -20 -110 -20 -103 0 -110 1 -110 20 0 19 7 20 110
20 103 0 110 -1 110 -20z m5040 -5 c0 -12 -19 -15 -110 -15 -91 0 -110 3 -110
15 0 12 19 15 110 15 91 0 110 -3 110 -15z m-5040 -85 l0 -60 -115 0 -115 0 0
60 0 60 115 0 115 0 0 -60z m5048 -2 l-3 -53 -115 0 -115 0 -3 53 -3 52 121 0
121 0 -3 -52z m-5048 -88 c0 -19 -7 -20 -110 -20 -103 0 -110 1 -110 20 0 19
7 20 110 20 103 0 110 -1 110 -20z m5040 0 c0 -19 -7 -20 -110 -20 -103 0
-110 1 -110 20 0 19 7 20 110 20 103 0 110 -1 110 -20z m-5040 -90 l0 -60
-115 0 -115 0 0 60 0 60 115 0 115 0 0 -60z m5045 0 l0 -55 -115 0 -115 0 -3
58 -3 58 118 -3 118 -3 0 -55z m-5045 -90 c0 -19 -7 -20 -110 -20 -103 0 -110
1 -110 20 0 19 7 20 110 20 103 0 110 -1 110 -20z m5040 0 c0 -19 -7 -20 -110
-20 -103 0 -110 1 -110 20 0 19 7 20 110 20 103 0 110 -1 110 -20z m-5040 -90
l0 -60 -115 0 -115 0 0 60 0 60 115 0 115 0 0 -60z m5045 0 l0 -55 -115 0
-115 0 -3 58 -3 58 118 -3 118 -3 0 -55z m-5045 -90 c0 -19 -7 -20 -110 -20
-103 0 -110 1 -110 20 0 19 7 20 110 20 103 0 110 -1 110 -20z m5040 0 c0 -19
-7 -20 -110 -20 -103 0 -110 1 -110 20 0 19 7 20 110 20 103 0 110 -1 110 -20z
m-5040 -90 l0 -60 -115 0 -115 0 0 60 0 60 115 0 115 0 0 -60z m5045 0 l0 -55
-115 0 -115 0 -3 58 -3 58 118 -3 118 -3 0 -55z m-5045 -90 c0 -19 -7 -20
-110 -20 -103 0 -110 1 -110 20 0 19 7 20 110 20 103 0 110 -1 110 -20z m5040
0 c0 -19 -7 -20 -110 -20 -103 0 -110 1 -110 20 0 19 7 20 110 20 103 0 110
-1 110 -20z m-5040 -90 l0 -60 -115 0 -115 0 0 60 0 60 115 0 115 0 0 -60z
m5045 0 l0 -55 -115 0 -115 0 -3 58 -3 58 118 -3 118 -3 0 -55z m-5045 -90 c0
-19 -7 -20 -110 -20 -103 0 -110 1 -110 20 0 19 7 20 110 20 103 0 110 -1 110
-20z m5040 0 c0 -19 -7 -20 -110 -20 -103 0 -110 1 -110 20 0 19 7 20 110 20
103 0 110 -1 110 -20z m-5040 -90 l0 -60 -115 0 -115 0 0 60 0 60 115 0 115 0
0 -60z m5045 0 l0 -55 -115 0 -115 0 -3 58 -3 58 118 -3 118 -3 0 -55z m-5045
-90 c0 -19 -7 -20 -110 -20 -103 0 -110 1 -110 20 0 19 7 20 110 20 103 0 110
-1 110 -20z m5040 0 c0 -19 -7 -20 -110 -20 -103 0 -110 1 -110 20 0 19 7 20
110 20 103 0 110 -1 110 -20z m-5032 -76 c10 -37 18 -48 47 -60 30 -12 354
-14 2354 -14 1381 0 2329 4 2344 9 38 15 57 40 57 77 l0 35 118 -3 117 -3 3
-84 c2 -62 -1 -89 -13 -107 l-15 -24 -2610 0 c-2358 0 -2610 2 -2624 16 -12
12 -16 37 -16 110 l0 94 113 0 113 0 12 -46z"/>
<path d="M560 3105 l0 -75 238 0 237 0 0 75 0 75 -237 0 -238 0 0 -75z m130
45 c0 -5 -9 -10 -21 -10 -19 0 -21 -5 -17 -45 2 -31 -1 -45 -9 -45 -9 0 -13
16 -13 45 0 39 -3 45 -21 45 -11 0 -17 5 -14 10 3 6 26 10 51 10 24 0 44 -4
44 -10z m160 0 c0 -5 -9 -10 -20 -10 -17 0 -20 -7 -20 -45 0 -25 -4 -45 -10
-45 -5 0 -10 20 -10 45 0 39 -3 45 -21 45 -11 0 -17 5 -14 10 3 6 26 10 51 10
24 0 44 -4 44 -10z m120 -20 c0 -6 -7 -22 -16 -35 -9 -13 -13 -29 -9 -35 3 -5
-1 -10 -9 -10 -20 0 -20 11 2 54 17 35 32 47 32 26z"/>
<path d="M3051 2942 c-238 -2 -277 -5 -293 -19 -17 -15 -18 -49 -18 -603 0
-556 1 -588 18 -603 17 -16 110 -17 1135 -17 1001 0 1117 2 1131 16 14 14 16
82 16 604 0 522 -2 590 -16 604 -14 14 -85 16 -622 17 -334 0 -713 1 -842 2
-129 1 -358 1 -509 -1z"/>
<path d="M392 2928 c-17 -17 -17 -1199 0 -1216 17 -17 2249 -17 2266 0 17 17
17 1199 0 1216 -17 17 -2249 17 -2266 0z"/>
<path d="M3960 1585 c0 -8 5 -15 10 -15 6 0 10 7 10 15 0 8 -4 15 -10 15 -5 0
-10 -7 -10 -15z"/>
<path d="M600 1524 c-58 -25 -121 -97 -119 -136 0 -7 4 -3 9 10 9 21 30 29 42
16 3 -3 1 -21 -5 -40 -11 -37 -42 -47 -50 -16 -3 9 -5 -3 -4 -28 0 -25 2 -35
4 -22 7 37 40 28 48 -14 8 -45 -13 -66 -32 -31 -9 16 -12 18 -13 6 0 -9 13
-35 30 -57 87 -121 271 -114 346 13 14 25 23 50 21 57 -4 9 -6 8 -6 -2 -1 -8
-5 -21 -10 -29 -13 -20 -42 4 -34 27 3 9 -5 2 -18 -17 -34 -48 -69 -72 -118
-78 -23 -3 -38 -9 -33 -12 5 -3 12 -13 15 -21 5 -13 6 -13 6 1 1 9 16 20 38
27 39 12 53 9 53 -13 0 -31 -126 -42 -169 -16 -23 14 -5 43 21 36 13 -3 5 4
-16 17 -130 77 -79 278 71 278 82 0 138 -50 153 -138 4 -26 8 -39 9 -29 1 10
9 17 20 17 11 0 22 -8 24 -17 3 -11 5 -6 6 11 3 77 -52 165 -123 197 -49 22
-118 24 -166 3z m70 -13 c0 -13 -10 -20 -31 -25 -50 -10 -70 16 -26 34 37 15
57 12 57 -9z m119 -15 c28 -18 48 -42 66 -79 30 -64 31 -77 7 -77 -24 0 -45
62 -28 81 8 9 7 11 -5 6 -11 -3 -27 6 -45 24 -17 18 -43 32 -66 35 -29 5 -38
11 -38 27 0 17 5 19 34 14 19 -3 52 -17 75 -31z m-202 -12 c9 -24 -40 -69 -62
-57 -15 9 -14 13 10 41 30 36 43 40 52 16z m-3 -307 c-5 -15 -9 -15 -26 -3
-11 8 -27 24 -35 36 -13 19 -13 24 -2 31 20 12 72 -41 63 -64z m235 17 c-27
-28 -35 -32 -42 -19 -5 11 -1 24 15 44 18 23 27 26 42 19 17 -9 16 -12 -15
-44z"/>
<path d="M1375 1528 c-82 -29 -135 -105 -135 -196 0 -65 10 -91 56 -142 96
-106 268 -79 336 53 29 57 22 149 -14 205 -49 73 -159 109 -243 80z m65 -17
c0 -14 -10 -21 -36 -26 -20 -3 -50 -19 -67 -35 -27 -25 -57 -31 -57 -11 0 17
59 63 71 56 7 -5 10 -4 5 3 -3 6 6 15 21 20 44 16 63 14 63 -7z m85 0 c54 -25
95 -69 75 -81 -21 -13 -70 29 -63 55 5 17 4 18 -9 7 -22 -18 -78 -5 -78 19 0
24 23 24 75 0z m-17 -45 c37 -19 71 -58 82 -92 9 -27 9 -26 5 7 -7 46 20 63
35 23 17 -43 13 -64 -13 -64 -17 0 -23 -6 -25 -25 -5 -65 -63 -123 -131 -132
-47 -6 -104 19 -133 58 -19 25 -22 26 -36 12 -14 -14 -17 -13 -29 3 -7 10 -13
31 -13 47 0 24 3 28 20 24 11 -3 20 -1 20 4 0 5 -9 9 -20 9 -22 0 -26 23 -10
64 15 40 42 23 35 -23 -4 -29 -3 -31 4 -10 30 91 129 136 209 95z m132 -161
c0 -38 -35 -100 -72 -128 -50 -38 -110 -51 -169 -37 -50 12 -54 16 -41 37 11
17 82 -5 83 -26 1 -14 2 -14 6 0 5 22 67 40 84 25 9 -8 10 -8 4 2 -10 19 42
72 64 65 12 -4 13 -3 3 5 -12 8 -9 49 5 75 10 18 33 5 33 -18z m-287 -122 c-7
-19 -24 -16 -50 9 -25 24 -30 44 -10 51 16 6 66 -44 60 -60z"/>
<path d="M1291 1294 c0 -11 3 -14 6 -6 3 7 2 16 -1 19 -3 4 -6 -2 -5 -13z"/>
<path d="M2124 1521 c-71 -33 -124 -115 -124 -196 0 -16 11 -54 25 -82 40 -88
143 -138 232 -114 153 41 212 222 110 338 -61 70 -160 92 -243 54z m168 -9
c22 -22 -5 -35 -46 -24 -23 7 -48 7 -71 1 -52 -15 -80 12 -32 31 30 12 135 6
149 -8z m-172 -36 c0 -18 -47 -59 -59 -51 -18 11 -12 33 15 54 27 21 44 20 44
-3z m244 -20 c8 -12 7 -19 -4 -26 -21 -13 -65 31 -56 55 6 15 9 16 28 3 12 -8
27 -22 32 -32z m-73 1 c96 -64 90 -203 -11 -254 -54 -28 -82 -28 -137 -4 -73
34 -103 126 -65 201 25 50 75 80 132 80 32 0 58 -7 81 -23z m114 -84 c6 -28 4
-33 -13 -33 -27 0 -47 66 -24 79 19 11 26 2 37 -46z m-343 41 c3 -3 1 -21 -5
-40 -7 -23 -16 -34 -29 -34 -17 0 -19 5 -13 33 4 17 9 35 12 40 5 8 27 9 35 1z
m-7 -120 c9 -48 -14 -67 -32 -26 -18 40 -16 62 6 62 14 0 21 -10 26 -36z m355
22 c0 -22 -21 -76 -30 -76 -16 0 -21 19 -14 55 4 25 11 35 25 35 11 0 19 -6
19 -14z m-312 -96 c16 -20 20 -34 15 -45 -8 -13 -14 -10 -41 16 -25 25 -30 35
-21 45 16 19 21 17 47 -16z m276 12 c3 -5 -10 -23 -28 -41 -29 -28 -34 -30
-40 -15 -12 30 52 82 68 56z m-159 -55 c22 1 49 3 60 5 12 2 21 -3 23 -14 7
-33 -120 -48 -167 -19 -8 5 -11 16 -8 26 5 12 13 14 29 8 13 -4 41 -7 63 -6z"/>
<path d="M3111 1514 c-71 -36 -104 -86 -109 -168 -3 -49 0 -71 16 -103 82
-160 295 -157 377 6 12 25 16 51 13 96 -5 84 -40 138 -111 171 -68 31 -120 31
-186 -2z m89 -3 c0 -14 -10 -21 -36 -26 -48 -9 -67 14 -26 32 40 18 62 16 62
-6z m85 0 c54 -25 95 -69 75 -81 -21 -13 -70 29 -64 55 4 14 3 16 -4 7 -14
-21 -82 -5 -82 19 0 24 23 24 75 0z m-190 -65 c-14 -14 -29 -25 -33 -22 -4 2
-8 -15 -9 -38 -1 -39 -1 -39 8 -11 4 17 24 46 43 64 77 75 213 40 246 -64 9
-29 10 -29 5 6 -7 46 20 63 35 23 17 -45 13 -64 -16 -64 -14 0 -23 -4 -20 -9
3 -5 15 -7 26 -4 48 13 7 -106 -52 -150 -50 -38 -110 -51 -169 -37 -50 12 -54
16 -41 37 11 17 82 -5 83 -26 1 -14 2 -14 6 0 5 22 67 40 84 25 9 -8 11 -7 6
5 -7 21 42 68 63 62 12 -4 12 -2 2 5 -9 6 -11 19 -7 38 5 23 2 20 -13 -12 -21
-44 -62 -79 -105 -89 -72 -18 -155 35 -176 113 -9 31 -17 42 -31 42 -38 0 -21
65 31 124 28 32 34 35 46 23 13 -12 11 -18 -12 -41z m-42 -155 c6 -25 5 -36
-5 -42 -18 -12 -38 17 -38 54 0 41 31 32 43 -12z m52 -110 c-13 -13 -17 -12
-40 9 -14 13 -25 29 -25 36 0 23 25 21 53 -4 24 -23 26 -28 12 -41z"/>
<path d="M3884 1521 c-71 -32 -126 -120 -123 -197 1 -17 3 -22 6 -11 8 30 37
20 49 -18 9 -28 8 -37 -3 -47 -16 -13 -32 2 -34 32 0 10 -2 11 -6 2 -10 -24
46 -101 95 -129 139 -81 316 25 311 186 -1 20 -3 28 -6 19 -8 -31 -37 -21 -49
17 -10 31 -9 37 7 45 14 8 19 5 27 -18 6 -15 11 -21 11 -14 1 21 -25 65 -56
94 -61 58 -153 74 -229 39z m168 -9 c22 -22 -5 -35 -46 -24 -23 7 -48 7 -71 1
-53 -15 -79 11 -32 31 29 13 134 7 149 -8z m-172 -36 c0 -18 -47 -59 -59 -51
-18 11 -12 33 15 54 27 21 44 20 44 -3z m234 -4 c24 -26 25 -30 11 -42 -14
-11 -20 -10 -42 12 -16 16 -23 32 -20 42 9 23 19 20 51 -12z m-66 -12 c96 -59
93 -206 -6 -260 -20 -11 -27 -18 -14 -15 26 7 44 -22 21 -36 -47 -29 -174 -14
-167 19 2 10 11 16 23 14 11 -1 38 -5 60 -7 39 -4 39 -4 -5 5 -146 32 -188
197 -70 278 43 29 112 30 158 2z m-226 -46 c3 -3 1 -21 -5 -40 -7 -22 -17 -34
-29 -34 -21 0 -22 6 -7 49 10 28 27 39 41 25z m348 -98 c0 -22 -21 -76 -30
-76 -16 0 -21 19 -14 55 4 25 11 35 25 35 11 0 19 -6 19 -14z m-312 -96 c13
-17 19 -35 16 -45 -6 -14 -12 -11 -40 16 -26 25 -31 36 -23 46 16 18 21 16 47
-17z m268 -12 c-8 -11 -23 -26 -34 -34 -17 -12 -21 -12 -26 3 -9 24 43 77 61
62 10 -9 10 -15 -1 -31z"/>
<path d="M4643 1515 c-73 -37 -106 -90 -109 -175 -1 -36 0 -53 3 -37 7 43 39
36 46 -10 7 -43 -10 -63 -30 -36 -20 26 -15 2 6 -33 35 -58 122 -106 186 -103
11 0 -8 7 -42 16 -64 15 -69 18 -55 40 11 17 80 -4 85 -26 4 -14 5 -14 6 0 1
21 72 43 84 26 6 -9 7 -8 5 3 -4 21 41 70 58 63 8 -3 14 -11 14 -17 0 -20 -55
-67 -96 -81 -22 -8 -31 -14 -21 -15 63 -1 159 105 156 173 -1 12 -5 3 -11 -20
-9 -44 -14 -48 -35 -35 -18 11 2 80 25 84 14 3 13 5 -5 10 -18 5 -22 1 -28
-31 -4 -20 -17 -50 -30 -67 -89 -117 -262 -58 -266 90 -1 28 -4 41 -6 29 -6
-30 -43 -32 -43 -3 0 28 26 79 58 113 29 31 38 33 46 12 6 -16 -40 -69 -54
-60 -4 3 -6 -4 -3 -15 5 -17 7 -16 30 11 74 88 198 77 251 -22 21 -39 23 -41
17 -13 -4 23 -2 33 9 37 18 7 26 -4 37 -47 6 -26 7 -27 8 -7 2 54 -69 139
-129 155 -14 4 -5 -4 20 -19 54 -31 79 -63 59 -76 -16 -10 -72 39 -62 54 3 6
1 7 -5 3 -7 -4 -27 -4 -47 0 -41 7 -50 40 -12 47 12 2 2 5 -24 6 -30 1 -61 -7
-96 -24z m87 -4 c0 -14 -10 -21 -36 -26 -48 -9 -67 14 -26 32 40 18 62 16 62
-6z m-87 -327 c-7 -20 -23 -17 -50 8 -25 24 -30 44 -10 51 17 6 67 -42 60 -59z"/>
<path d="M2590 1470 l0 -50 115 0 115 0 0 50 0 50 -115 0 -115 0 0 -50z m220
0 l0 -40 -105 0 -105 0 0 40 0 40 105 0 105 0 0 -40z"/>
<path d="M2684 1315 c-8 -19 3 -35 26 -35 19 0 30 17 23 38 -6 17 -42 15 -49
-3z"/>
<path d="M2594 1166 c-3 -8 -4 -31 -2 -52 l3 -39 113 -3 112 -3 0 56 0 55
-110 0 c-85 0 -112 -3 -116 -14z m216 -41 l0 -45 -105 0 -105 0 0 45 0 45 105
0 105 0 0 -45z"/>
<path d="M2666 1025 c5 -13 -13 -15 -127 -16 -83 -1 -124 -4 -109 -9 14 -4 73
-8 132 -9 91 -1 106 -3 102 -16 -5 -13 -2 -13 30 0 29 12 107 15 448 16 227 1
465 5 528 9 70 4 -91 7 -411 8 -443 2 -532 4 -562 17 -32 13 -36 13 -31 0z"/>
<path d="M628 1003 c29 -2 74 -2 100 0 26 2 2 3 -53 3 -55 0 -76 -1 -47 -3z"/>
<path d="M845 999 c56 -11 397 -11 415 1 10 6 -65 9 -220 9 -152 -1 -221 -4
-195 -10z"/>
<path d="M1435 1000 c89 -9 613 -10 810 0 97 4 -33 7 -365 7 -283 0 -483 -3
-445 -7z"/>
<path d="M3794 1003 c4 -5 281 -10 614 -13 l607 -5 3 -364 c2 -285 -1 -366
-10 -373 -7 -4 -1044 -8 -2303 -8 -1769 0 -2294 3 -2303 12 -9 9 -12 105 -12
370 0 329 1 358 17 367 10 6 13 11 8 11 -33 1 -35 -23 -35 -387 0 -348 1 -363
19 -373 14 -7 752 -10 2315 -10 l2296 0 15 24 c14 20 15 70 13 376 -3 335 -4
352 -22 366 -17 12 -118 14 -625 14 -332 0 -601 -3 -597 -7z"/>
<path d="M488 849 c13 -5 91 -8 172 -7 82 2 144 0 138 -3 -7 -4 -6 -9 1 -13
15 -10 15 -482 0 -492 -7 -4 -8 -9 -1 -13 6 -3 -68 -6 -163 -6 -95 0 -169 3
-163 6 7 4 7 9 0 13 -6 3 -12 2 -14 -4 -1 -6 -2 101 0 237 2 173 7 252 15 263
11 13 10 13 -7 0 -18 -14 -19 -13 -13 3 4 11 3 16 -3 12 -15 -9 -13 -518 2
-533 15 -15 354 -17 363 -2 8 13 8 527 0 540 -4 6 -75 10 -178 9 -118 0 -165
-3 -149 -10z"/>
<path d="M1190 718 l0 -128 190 0 190 0 0 128 0 127 -190 0 -190 0 0 -127z
m17 -60 c-2 -35 -3 -7 -3 62 0 69 1 97 3 63 2 -35 2 -91 0 -125z m350 0 c-2
-35 -3 -7 -3 62 0 69 1 97 3 63 2 -35 2 -91 0 -125z m-217 152 c0 -56 -70 -96
-85 -50 -13 41 43 69 64 33 6 -10 11 -13 11 -7 0 15 -22 34 -39 34 -8 0 -25
-10 -38 -22 -22 -21 -23 -21 -23 -1 0 29 8 33 62 33 42 0 48 -3 48 -20z m188
-8 l4 -24 -21 21 c-27 27 -42 26 -74 -3 -23 -22 -26 -33 -29 -103 -3 -72 -5
-78 -25 -81 -22 -3 -23 0 -23 70 0 40 -3 90 -6 110 l-6 37 88 -2 c85 -2 89 -3
92 -25z m-31 -4 c6 -7 12 -22 15 -34 5 -19 1 -21 -37 -21 -38 0 -42 2 -37 21
6 28 21 46 37 46 7 0 17 -6 22 -12z m-240 -150 c-2 -18 -4 -6 -4 27 0 33 2 48
4 33 2 -15 2 -42 0 -60z m243 32 c0 -43 -3 -50 -20 -50 -17 0 -20 7 -20 44 0
34 4 46 18 49 9 3 18 5 20 6 1 0 2 -21 2 -49z m17 -32 c-2 -18 -4 -6 -4 27 0
33 2 48 4 33 2 -15 2 -42 0 -60z m-207 27 c0 -38 -3 -45 -20 -45 -17 0 -20 7
-20 45 0 38 3 45 20 45 17 0 20 -7 20 -45z m17 -32 c-2 -16 -4 -3 -4 27 0 30
2 43 4 28 2 -16 2 -40 0 -55z m120 0 c-2 -16 -4 -3 -4 27 0 30 2 43 4 28 2
-16 2 -40 0 -55z"/>
<path d="M1277 783 c-12 -12 -7 -23 11 -23 13 0 14 2 3 9 -11 7 -11 9 0 14 8
3 9 6 3 6 -6 1 -14 -2 -17 -6z"/>
<path d="M1461 773 c0 -13 2 -14 6 -4 5 11 7 11 14 0 7 -11 9 -10 9 4 0 9 -7
17 -15 17 -8 0 -15 -8 -14 -17z"/>
<path d="M4440 720 l0 -130 185 0 185 0 0 130 0 130 -185 0 -185 0 0 -130z
m357 73 c-3 -10 -5 -2 -5 17 0 19 2 27 5 18 2 -10 2 -26 0 -35z m-217 15 c0
-20 -1 -20 -18 -5 -10 10 -25 17 -33 17 -18 0 -39 -19 -39 -34 0 -6 5 -3 11 7
21 36 77 8 64 -33 -15 -47 -85 -8 -85 47 0 21 5 23 50 23 45 0 50 -2 50 -22z
m73 -80 c-6 -107 -11 -125 -37 -115 -12 5 -16 22 -16 74 0 37 -3 85 -6 106 -7
37 -7 37 29 37 l35 0 -5 -102z m117 82 c0 -33 -30 -70 -56 -70 -27 0 -30 4
-39 53 l-7 37 51 0 c45 0 51 -3 51 -20z m-273 -162 c-2 -18 -4 -6 -4 27 0 33
2 48 4 33 2 -15 2 -42 0 -60z m190 0 c-2 -18 -4 -6 -4 27 0 33 2 48 4 33 2
-15 2 -42 0 -60z m53 32 c0 -43 -3 -50 -20 -50 -17 0 -20 7 -20 44 0 34 4 46
18 49 9 3 18 5 20 6 1 0 2 -21 2 -49z m-190 -5 c0 -38 -3 -45 -20 -45 -17 0
-20 7 -20 45 0 38 3 45 20 45 17 0 20 -7 20 -45z m207 -32 c-2 -16 -4 -3 -4
27 0 30 2 43 4 28 2 -16 2 -40 0 -55z"/>
<path d="M4515 780 c-3 -6 1 -13 10 -16 19 -8 30 0 20 15 -8 14 -22 14 -30 1z"/>
<path d="M4693 813 c-7 -2 -13 -9 -13 -15 0 -6 6 -6 15 2 16 13 55 5 55 -12 0
-6 3 -8 6 -5 4 4 1 13 -6 22 -12 15 -34 18 -57 8z"/>
<path d="M4705 779 c-4 -6 -4 -13 -1 -16 3 -4 6 0 6 8 0 11 2 11 10 -1 8 -13
10 -12 10 3 0 19 -15 23 -25 6z"/>
<path d="M893 795 c0 -22 2 -30 4 -17 2 12 2 30 0 40 -3 9 -5 -1 -4 -23z"/>
<path d="M511 784 c-26 -33 -35 -112 -28 -250 5 -114 20 -166 52 -178 35 -13
190 -6 212 9 33 23 46 101 41 255 -3 111 -6 140 -22 163 -18 27 -20 27 -126
27 -104 0 -109 -1 -129 -26z m240 -1 c9 -10 15 -50 17 -110 l4 -93 -136 0
-136 0 0 81 c0 77 10 115 34 131 6 4 54 8 107 8 78 0 99 -3 110 -17z m19 -271
c0 -94 -11 -102 -134 -102 -123 0 -128 4 -134 96 l-4 64 136 0 136 0 0 -58z
m-135 -122 c80 0 102 3 118 18 19 17 20 16 7 -8 -19 -37 -27 -40 -126 -40 -94
0 -104 4 -129 50 -6 11 -3 10 12 -2 16 -15 39 -18 118 -18z"/>
<path d="M1602 763 c-8 -8 -9 -13 -2 -13 5 0 10 -8 11 -17 0 -14 2 -15 6 -3 3
8 9 17 13 20 4 3 2 10 -4 16 -9 8 -15 7 -24 -3z"/>
<path d="M4842 763 c-8 -8 -9 -13 -2 -13 5 0 10 -8 11 -17 0 -14 2 -15 6 -3 3
8 9 17 13 20 4 3 2 10 -4 16 -9 8 -15 7 -24 -3z"/>
<path d="M1935 746 c-109 -65 -116 -234 -14 -307 34 -24 117 -37 163 -25 32 8
93 61 112 97 18 36 18 122 0 157 -19 36 -65 78 -99 91 -49 19 -118 13 -162
-13z m180 -9 c105 -60 113 -217 13 -289 -27 -19 -46 -23 -100 -23 -75 0 -105
16 -146 76 -33 48 -28 141 10 191 53 69 147 88 223 45z"/>
<path d="M1984 739 c-46 -13 -90 -59 -105 -107 -34 -114 78 -227 190 -193 82
24 133 110 112 189 -13 48 -63 99 -109 112 -42 11 -46 11 -88 -1z m123 -29
c86 -52 83 -198 -5 -244 -30 -15 -58 -20 -106 -18 -40 3 -101 66 -110 115 -9
51 21 120 66 147 43 26 113 26 155 0z"/>
<path d="M1990 667 c-54 -27 -64 -94 -21 -138 35 -35 77 -38 114 -9 49 39 42
116 -14 145 -34 18 -47 18 -79 2z m94 -27 c29 -28 25 -78 -8 -107 -36 -31 -61
-29 -97 6 -33 33 -36 56 -13 89 31 44 79 49 118 12z"/>
<path d="M1985 616 c-19 -28 -9 -58 26 -76 45 -25 94 51 57 88 -21 21 -66 14
-83 -12z m75 0 c6 -8 10 -25 8 -38 -2 -19 -9 -23 -38 -23 -31 0 -35 3 -38 29
-5 42 41 64 68 32z"/>
<path d="M2435 755 c-46 -25 -66 -46 -86 -90 -23 -49 -24 -94 -4 -143 33 -77
86 -112 170 -112 84 0 137 35 170 112 31 76 7 163 -60 214 -47 35 -142 45
-190 19z m148 -9 c74 -30 120 -124 98 -198 -23 -78 -88 -128 -166 -128 -152 0
-226 176 -122 289 45 49 125 64 190 37z"/>
<path d="M2450 728 c-59 -31 -82 -66 -88 -130 -3 -44 0 -59 20 -87 38 -57 73
-76 133 -76 60 0 95 20 133 75 30 45 30 115 -1 161 -23 35 -96 79 -132 79 -11
0 -41 -10 -65 -22z m157 -30 c101 -94 43 -251 -92 -251 -102 0 -176 113 -131
201 46 88 156 113 223 50z"/>
<path d="M2490 673 c-82 -31 -78 -148 5 -169 80 -20 143 87 83 144 -25 23 -65
34 -88 25z m90 -43 c29 -54 -5 -114 -65 -114 -82 0 -106 108 -32 139 36 15 82
3 97 -25z"/>
<path d="M2476 624 c-22 -21 -20 -50 4 -74 24 -24 38 -25 68 -4 24 16 28 44
12 75 -13 23 -62 26 -84 3z m74 -9 c16 -19 9 -45 -16 -62 -19 -12 -24 -11 -45
6 -21 16 -22 22 -11 45 13 29 52 36 72 11z"/>
<path d="M2925 756 c-157 -70 -130 -311 39 -345 42 -9 40 -34 -4 -42 -23 -4
-9 -6 40 -6 41 0 60 2 43 4 -25 3 -33 9 -33 24 0 12 7 19 20 19 32 0 96 37
118 67 27 38 44 106 36 140 -28 121 -152 187 -259 139z m152 -13 c19 -9 48
-34 64 -56 38 -53 41 -136 7 -187 -41 -59 -72 -75 -146 -75 -79 0 -120 23
-152 85 -75 146 79 304 227 233z"/>
<path d="M2956 740 c-42 -13 -95 -68 -107 -112 -29 -111 82 -222 190 -190 55
17 87 46 106 97 20 50 15 93 -15 142 -32 53 -113 82 -174 63z m114 -25 c127
-65 81 -265 -61 -267 -87 -2 -149 57 -149 140 0 54 22 97 63 122 38 24 106 26
147 5z"/>
<path d="M2959 665 c-38 -21 -55 -67 -39 -105 27 -65 92 -79 141 -31 36 36 38
79 7 115 -28 32 -74 41 -109 21z m99 -31 c12 -14 22 -31 22 -39 0 -30 -24 -64
-53 -76 -37 -15 -75 2 -95 44 -16 34 0 75 38 94 31 16 59 8 88 -23z"/>
<path d="M2962 628 c-20 -20 -14 -66 11 -82 50 -33 105 21 72 70 -17 26 -62
33 -83 12z m77 -20 c13 -33 -4 -58 -39 -58 -23 0 -31 5 -36 25 -8 31 10 55 43
55 15 0 27 -8 32 -22z"/>
<path d="M3392 744 c-146 -88 -96 -318 73 -332 71 -6 97 2 141 40 80 71 87
186 16 262 -58 62 -156 75 -230 30z m178 -4 c80 -41 112 -147 70 -230 -29 -57
-73 -84 -145 -88 -50 -3 -66 0 -95 20 -56 38 -80 82 -80 148 0 47 5 64 29 97
52 71 142 93 221 53z"/>
<path d="M3437 736 c-51 -19 -73 -40 -93 -92 -29 -77 5 -161 79 -194 54 -25
81 -25 133 1 65 31 90 82 86 171 -3 38 -65 105 -110 118 -46 12 -48 12 -95 -4z
m131 -25 c59 -31 81 -135 42 -198 -44 -73 -150 -89 -215 -32 -133 117 15 314
173 230z"/>
<path d="M3454 670 c-58 -23 -70 -95 -25 -141 35 -35 77 -38 114 -9 49 39 42
116 -14 145 -31 17 -44 18 -75 5z m90 -30 c29 -28 25 -78 -8 -107 -30 -26 -44
-28 -80 -12 -36 17 -54 65 -35 98 29 51 82 60 123 21z"/>
<path d="M3446 617 c-33 -49 21 -104 70 -72 26 17 33 62 12 83 -20 20 -66 14
-82 -11z m74 -1 c6 -8 10 -25 8 -38 -2 -19 -9 -23 -38 -23 -31 0 -35 3 -38 29
-5 42 41 64 68 32z"/>
<path d="M3895 756 c-63 -28 -105 -94 -105 -166 0 -50 15 -88 48 -123 40 -42
75 -57 134 -57 144 0 227 143 158 270 -44 79 -151 113 -235 76z m179 -30 c48
-36 66 -74 66 -139 0 -95 -70 -167 -162 -167 -65 0 -114 24 -145 71 -56 84
-33 193 50 244 57 35 138 32 191 -9z"/>
<path d="M3925 740 c-17 -5 -46 -25 -64 -44 -28 -29 -35 -45 -39 -89 -7 -91
40 -156 127 -173 45 -9 116 20 147 62 90 117 -30 286 -171 244z m135 -38 c106
-78 51 -252 -81 -254 -87 -2 -149 57 -149 141 0 121 130 185 230 113z"/>
<path d="M3929 665 c-77 -43 -43 -165 46 -165 37 0 85 50 85 89 0 63 -76 107
-131 76z m99 -31 c40 -45 19 -104 -44 -120 -36 -9 -78 23 -82 64 -8 82 70 117
126 56z"/>
<path d="M3932 628 c-21 -21 -14 -66 12 -83 51 -34 111 30 71 75 -20 22 -65
26 -83 8z m78 -17 c21 -41 -21 -81 -58 -55 -38 26 -22 74 25 74 12 0 27 -9 33
-19z"/>
<path d="M1133 753 c9 -2 23 -2 30 0 6 3 -1 5 -18 5 -16 0 -22 -2 -12 -5z"/>
<path d="M4373 753 c9 -2 23 -2 30 0 6 3 -1 5 -18 5 -16 0 -22 -2 -12 -5z"/>
<path d="M1270 465 l0 -65 110 0 110 0 0 65 0 65 -110 0 -110 0 0 -65z m210 0
l0 -55 -35 0 -35 0 0 55 0 55 35 0 35 0 0 -55z m-82 3 l-3 -43 -52 -3 -53 -3
0 45 0 46 56 0 55 0 -3 -42z"/>
<path d="M4510 465 l0 -65 115 0 115 0 0 65 0 65 -115 0 -115 0 0 -65z m220 0
l0 -55 -40 0 -40 0 0 55 0 55 40 0 40 0 0 -55z m-90 0 l0 -45 -55 0 -55 0 0
45 0 45 55 0 55 0 0 -45z"/>
<path d="M863 355 c-3 -9 -3 -18 -1 -21 3 -3 8 4 11 16 6 23 -1 27 -10 5z"/>
<path d="M2978 333 c12 -2 32 -2 45 0 12 2 2 4 -23 4 -25 0 -35 -2 -22 -4z"/>
<path d="M2990 310 c0 -5 7 -10 16 -10 8 0 12 5 9 10 -3 6 -10 10 -16 10 -5 0
-9 -4 -9 -10z"/>
<path d="M21 49 c-1 -17 29 -49 45 -49 5 0 1 5 -9 11 -10 6 -22 20 -27 32 -6
15 -9 17 -9 6z"/>
</g>
</svg>
